<svg width="700" height="700" viewBox="0 0 700 700" fill="none" xmlns="http://www.w3.org/2000/svg">
<rect width="700" height="700" fill="#2C2828"/>
<rect x="100" y="100" width="500" height="500" fill="#504C4C"/>
<path d="M236.6 315.6C223.533 315.6 212.933 313.867 204.8 310.4C196.667 306.8 190.533 301.867 186.4 295.6C182.4 289.333 180.067 282.267 179.4 274.4H195C195.4 280.8 197.533 286 201.4 290C205.267 293.867 210.333 296.733 216.6 298.6C223 300.467 230 301.4 237.6 301.4C248.8 301.4 257.667 299.467 264.2 295.6C270.733 291.6 274 285.733 274 278C274 273.333 272.333 269.6 269 266.8C265.8 263.867 261.467 261.467 256 259.6C250.667 257.733 244.8 256.067 238.4 254.6C232 253 225.533 251.333 219 249.6C212.6 247.867 206.667 245.667 201.2 243C195.867 240.333 191.533 236.933 188.2 232.8C185 228.533 183.4 223.133 183.4 216.6C183.4 205.8 187.533 197 195.8 190.2C204.2 183.4 216.667 180 233.2 180C244.933 180 254.6 181.8 262.2 185.4C269.8 188.867 275.467 193.467 279.2 199.2C283.067 204.933 285.2 211.133 285.6 217.8H270.2C269.4 211.133 266.067 205.533 260.2 201C254.333 196.333 245.333 194 233.2 194C225.733 194 219.667 194.733 215 196.2C210.333 197.667 206.733 199.6 204.2 202C201.8 204.267 200.133 206.667 199.2 209.2C198.4 211.733 198 214.133 198 216.4C198 220.8 199.6 224.4 202.8 227.2C206.133 229.867 210.467 232.133 215.8 234C221.267 235.733 227.267 237.333 233.8 238.8C240.333 240.267 246.8 241.933 253.2 243.8C259.733 245.533 265.667 247.8 271 250.6C276.467 253.267 280.8 256.733 284 261C287.333 265.267 289 270.733 289 277.4C289 289.667 284.333 299.133 275 305.8C265.667 312.333 252.867 315.6 236.6 315.6ZM482.559 314V181.6H497.559V314H482.559ZM189.2 520V387.6H252.6C266.2 387.6 277 391.333 285 398.8C293.133 406.267 297.2 416.333 297.2 429C297.2 437.533 295.533 444.333 292.2 449.4C289 454.467 284.933 458.333 280 461C275.067 463.533 270.133 465.4 265.2 466.6L300 520H282.2L250.2 469.2H204.2V520H189.2ZM204.2 455H250C254.8 455 259.667 454.267 264.6 452.8C269.533 451.333 273.667 448.733 277 445C280.467 441.133 282.2 435.8 282.2 429C282.2 420.6 279.333 414 273.6 409.2C267.867 404.267 260.267 401.8 250.8 401.8H204.2V455ZM493.302 520V387.6H508.302V520H493.302Z" fill="white"/>
</svg>
